<svg width="48" height="49" viewBox="0 0 48 49" fill="none" xmlns="http://www.w3.org/2000/svg">
<g clip-path="url(#clip0_7027_14616)">
<path d="M48 24.5C48 11.2452 37.2548 0.5 24 0.5C10.7452 0.5 0 11.2452 0 24.5C0 37.7548 10.7452 48.5 24 48.5C37.2548 48.5 48 37.7548 48 24.5Z" fill="#FCFCFC"/>
<path class="st0" d="M21.3,9.7c-0.6,0-1.2,0.5-1.2,1.2c0,0.7,0.5,1.2,1.2,1.2c0.7,0,1.2-0.5,1.2-1.2C22.4,10.2,21.9,9.7,21.3,9.7z"/>
<path class="st0" d="M16,11.2c-2.7,0-4.9,2.2-4.9,4.9c0,2.7,2.2,4.9,4.9,4.9s4.9-2.2,4.9-4.9C21,13.4,18.8,11.2,16,11.2z M16,19.3   c-1.7,0-3.2-1.4-3.2-3.2c0-1.7,1.4-3.2,3.2-3.2c1.7,0,3.2,1.4,3.2,3.2C19.2,17.9,17.8,19.3,16,19.3z"/>
<path class="st0" d="M20,6h-8c-3.3,0-6,2.7-6,6v8c0,3.3,2.7,6,6,6h8c3.3,0,6-2.7,6-6v-8C26,8.7,23.3,6,20,6z M24.1,20   c0,2.3-1.9,4.1-4.1,4.1h-8c-2.3,0-4.1-1.9-4.1-4.1v-8c0-2.3,1.9-4.1,4.1-4.1h8c2.3,0,4.1,1.9,4.1,4.1V20z"/>
<path d="M25.979 19.4422H21.3398V33.5H25.979C25.979 33.5 25.979 29.0744 25.979 26.3074C25.979 24.6464 26.5462 22.9783 28.8089 22.9783C31.3661 22.9783 31.3508 25.1518 31.3388 26.8357C31.3232 29.0366 31.3604 31.2829 31.3604 33.5H35.9996V26.0806C35.9603 21.3431 34.7258 19.1602 30.6646 19.1602C28.2527 19.1602 26.7577 20.2552 25.979 21.2458V19.4422Z" fill="#240529"/>
</g>
<defs>
<clipPath id="clip0_7027_14616">
<rect width="48" height="48" fill="white" transform="translate(0 0.5)"/>
</clipPath>
</defs>
</svg>
